<svg width="64" height="20" viewBox="0 0 64 20" fill="none" xmlns="http://www.w3.org/2000/svg">
<rect width="64" height="20" rx="10" fill="#F4F0ED"/>
<path d="M14.552 14H9.08V5.6H10.172V13.076H14.552V14ZM17.2 14.18C16.632 14.18 16.156 14.02 15.772 13.7C15.396 13.38 15.208 12.952 15.208 12.416C15.208 11.896 15.384 11.492 15.736 11.204C16.096 10.908 16.56 10.712 17.128 10.616L18.364 10.424C18.58 10.392 18.732 10.332 18.82 10.244C18.908 10.156 18.952 10.024 18.952 9.848C18.952 9.536 18.844 9.292 18.628 9.116C18.412 8.932 18.132 8.84 17.788 8.84C17.356 8.84 17.024 8.948 16.792 9.164C16.56 9.372 16.436 9.66 16.42 10.028H15.388C15.404 9.668 15.504 9.336 15.688 9.032C15.872 8.728 16.136 8.484 16.48 8.3C16.832 8.116 17.24 8.024 17.704 8.024C18.416 8.024 18.968 8.22 19.36 8.612C19.76 9.004 19.96 9.536 19.96 10.208V14H18.976V13.712V13.22C18.832 13.524 18.604 13.76 18.292 13.928C17.988 14.096 17.624 14.18 17.2 14.18ZM17.344 13.376C17.808 13.376 18.192 13.232 18.496 12.944C18.8 12.656 18.952 12.28 18.952 11.816V10.964C18.888 11.06 18.676 11.144 18.316 11.216L17.476 11.372C16.676 11.524 16.276 11.872 16.276 12.416C16.276 12.704 16.376 12.936 16.576 13.112C16.784 13.288 17.04 13.376 17.344 13.376ZM24.5774 14.18C24.1774 14.18 23.8094 14.092 23.4734 13.916C23.1374 13.732 22.8774 13.492 22.6934 13.196V13.688V14H21.6614V5.6H22.6934V8.528V8.996C22.8934 8.716 23.1574 8.484 23.4854 8.3C23.8214 8.116 24.1934 8.024 24.6014 8.024C25.1454 8.024 25.6174 8.156 26.0174 8.42C26.4254 8.684 26.7334 9.052 26.9414 9.524C27.1574 9.988 27.2654 10.516 27.2654 11.108C27.2654 11.708 27.1534 12.24 26.9294 12.704C26.7134 13.168 26.4014 13.532 25.9934 13.796C25.5854 14.052 25.1134 14.18 24.5774 14.18ZM24.4094 13.376C24.9454 13.376 25.3734 13.168 25.6934 12.752C26.0214 12.328 26.1854 11.78 26.1854 11.108C26.1854 10.436 26.0214 9.892 25.6934 9.476C25.3734 9.052 24.9454 8.84 24.4094 8.84C23.8814 8.84 23.4534 9.044 23.1254 9.452C22.7974 9.852 22.6334 10.4 22.6334 11.096C22.6334 11.544 22.7094 11.94 22.8614 12.284C23.0134 12.628 23.2214 12.896 23.4854 13.088C23.7574 13.28 24.0654 13.376 24.4094 13.376ZM31.1055 14.18C30.2335 14.18 29.5455 13.912 29.0415 13.376C28.5455 12.84 28.2975 12.076 28.2975 11.084C28.2975 10.5 28.4135 9.976 28.6455 9.512C28.8855 9.048 29.2135 8.684 29.6295 8.42C30.0535 8.156 30.5255 8.024 31.0455 8.024C31.8935 8.024 32.5495 8.3 33.0135 8.852C33.4855 9.404 33.7215 10.152 33.7215 11.096V11.3H29.3295C29.3375 11.94 29.5095 12.448 29.8455 12.824C30.1815 13.192 30.6055 13.376 31.1175 13.376C31.5095 13.376 31.8455 13.288 32.1255 13.112C32.4055 12.928 32.5775 12.628 32.6415 12.212H33.6615C33.5975 12.772 33.3495 13.24 32.9175 13.616C32.4855 13.992 31.8815 14.18 31.1055 14.18ZM32.6175 10.568C32.6175 10.04 32.4775 9.62 32.1975 9.308C31.9255 8.996 31.5415 8.84 31.0455 8.84C30.5735 8.84 30.1855 9.004 29.8815 9.332C29.5775 9.66 29.4055 10.072 29.3655 10.568H32.6175ZM35.138 5.6H36.17V14H35.138V5.6Z" fill="black"/>
<path d="M55 7.00002L49 13M49 7L55 13" stroke="black" stroke-linecap="round" stroke-linejoin="round"/>
</svg>
