<svg width="100" height="14" viewBox="0 0 100 14" fill="none" xmlns="http://www.w3.org/2000/svg">
<path d="M2.67951 12H1.40551V2.2H3.32351L8.29351 10.558V9.326V2.2H9.58151V12H7.80351L2.67951 3.432V4.622V12ZM14.6332 12.21C13.6159 12.21 12.8132 11.8973 12.2252 11.272C11.6465 10.6467 11.3572 9.75533 11.3572 8.598C11.3572 7.91667 11.4925 7.30533 11.7632 6.764C12.0432 6.22267 12.4259 5.798 12.9112 5.49C13.4059 5.182 13.9565 5.028 14.5632 5.028C15.5525 5.028 16.3179 5.35 16.8592 5.994C17.4099 6.638 17.6852 7.51067 17.6852 8.612V8.85H12.5612C12.5705 9.59667 12.7712 10.1893 13.1632 10.628C13.5552 11.0573 14.0499 11.272 14.6472 11.272C15.1045 11.272 15.4965 11.1693 15.8232 10.964C16.1499 10.7493 16.3505 10.3993 16.4252 9.914H17.6152C17.5405 10.5673 17.2512 11.1133 16.7472 11.552C16.2432 11.9907 15.5385 12.21 14.6332 12.21ZM16.3972 7.996C16.3972 7.38 16.2339 6.89 15.9072 6.526C15.5899 6.162 15.1419 5.98 14.5632 5.98C14.0125 5.98 13.5599 6.17133 13.2052 6.554C12.8505 6.93667 12.6499 7.41733 12.6032 7.996H16.3972ZM20.6274 12L18.4294 5.252H19.7314L21.2014 10.25C21.2761 10.474 21.3227 10.628 21.3414 10.712C21.4161 10.5067 21.4674 10.3527 21.4954 10.25L22.9794 5.252H24.4774L26.0454 10.25L26.1714 10.656L26.3114 10.222L27.7674 5.252H28.9854L26.8154 12H25.4154L23.8754 6.904L23.7214 6.414L23.5674 6.904L22.0134 12H20.6274ZM35.9694 12.21C35.4374 12.21 34.9381 12.112 34.4714 11.916C34.0048 11.7107 33.6268 11.412 33.3374 11.02C33.0574 10.628 32.9174 10.1613 32.9174 9.62C32.9174 8.948 33.1041 8.38333 33.4774 7.926C33.8508 7.45933 34.3921 7.01133 35.1014 6.582L35.1994 6.512L35.1434 6.442C34.6768 5.854 34.3641 5.406 34.2054 5.098C34.0561 4.78067 33.9814 4.43533 33.9814 4.062C33.9814 3.68867 34.0841 3.34333 34.2894 3.026C34.5041 2.69933 34.7981 2.44267 35.1714 2.256C35.5541 2.06933 35.9881 1.976 36.4734 1.976C37.1641 1.976 37.7381 2.16267 38.1954 2.536C38.6621 2.9 38.8954 3.39467 38.8954 4.02C38.8954 4.57067 38.7134 5.07933 38.3494 5.546C37.9854 6.00333 37.5281 6.39533 36.9774 6.722L36.9074 6.75L38.4754 8.696C38.4568 8.668 38.5734 8.81267 38.8254 9.13C38.8441 9.06467 38.8674 8.99 38.8954 8.906C38.9328 8.81267 38.9654 8.70533 38.9934 8.584C39.0868 8.03333 39.1474 7.562 39.1754 7.17H40.4634C40.4168 8.28067 40.1274 9.256 39.5954 10.096L41.1214 12H39.6374L38.8534 11.006C38.4521 11.3887 38.0088 11.6873 37.5234 11.902C37.0381 12.1073 36.5201 12.21 35.9694 12.21ZM36.3194 5.91C36.7488 5.66733 37.0801 5.38733 37.3134 5.07C37.5561 4.74333 37.6774 4.39333 37.6774 4.02C37.6774 3.69333 37.5654 3.44133 37.3414 3.264C37.1174 3.07733 36.8374 2.984 36.5014 2.984C36.1281 2.984 35.8248 3.09133 35.5914 3.306C35.3674 3.51133 35.2554 3.79133 35.2554 4.146C35.2554 4.398 35.3254 4.65 35.4654 4.902C35.6148 5.14467 35.8388 5.462 36.1374 5.854L36.2354 5.966L36.3194 5.91ZM36.0534 11.216C36.8934 11.216 37.6074 10.8753 38.1954 10.194L35.8854 7.324L35.8154 7.38C35.2834 7.744 34.8774 8.08467 34.5974 8.402C34.3268 8.71 34.1914 9.09267 34.1914 9.55C34.1914 10.0447 34.3594 10.446 34.6954 10.754C35.0408 11.062 35.4934 11.216 36.0534 11.216ZM47.0721 12H45.7981V2.2H52.1821V3.264H47.0721V6.414H51.9441V7.478H47.0721V12ZM56.4691 12.21C55.4518 12.21 54.6491 11.8973 54.0611 11.272C53.4825 10.6467 53.1931 9.75533 53.1931 8.598C53.1931 7.91667 53.3285 7.30533 53.5991 6.764C53.8791 6.22267 54.2618 5.798 54.7471 5.49C55.2418 5.182 55.7925 5.028 56.3991 5.028C57.3885 5.028 58.1538 5.35 58.6951 5.994C59.2458 6.638 59.5211 7.51067 59.5211 8.612V8.85H54.3971C54.4065 9.59667 54.6071 10.1893 54.9991 10.628C55.3911 11.0573 55.8858 11.272 56.4831 11.272C56.9405 11.272 57.3325 11.1693 57.6591 10.964C57.9858 10.7493 58.1865 10.3993 58.2611 9.914H59.4511C59.3765 10.5673 59.0871 11.1133 58.5831 11.552C58.0791 11.9907 57.3745 12.21 56.4691 12.21ZM58.2331 7.996C58.2331 7.38 58.0698 6.89 57.7431 6.526C57.4258 6.162 56.9778 5.98 56.3991 5.98C55.8485 5.98 55.3958 6.17133 55.0411 6.554C54.6865 6.93667 54.4858 7.41733 54.4391 7.996H58.2331ZM63.0917 12.21C62.429 12.21 61.8737 12.0233 61.4257 11.65C60.987 11.2767 60.7677 10.7773 60.7677 10.152C60.7677 9.54533 60.973 9.074 61.3837 8.738C61.8037 8.39267 62.345 8.164 63.0077 8.052L64.4497 7.828C64.7017 7.79067 64.879 7.72067 64.9817 7.618C65.0844 7.51533 65.1357 7.36133 65.1357 7.156C65.1357 6.792 65.0097 6.50733 64.7577 6.302C64.5057 6.08733 64.179 5.98 63.7777 5.98C63.2737 5.98 62.8864 6.106 62.6157 6.358C62.345 6.60067 62.2004 6.93667 62.1817 7.366H60.9777C60.9964 6.946 61.113 6.55867 61.3277 6.204C61.5424 5.84933 61.8504 5.56467 62.2517 5.35C62.6624 5.13533 63.1384 5.028 63.6797 5.028C64.5104 5.028 65.1544 5.25667 65.6117 5.714C66.0784 6.17133 66.3117 6.792 66.3117 7.576V12H65.1637V11.664V11.09C64.9957 11.4447 64.7297 11.72 64.3657 11.916C64.011 12.112 63.5864 12.21 63.0917 12.21ZM63.2597 11.272C63.801 11.272 64.249 11.104 64.6037 10.768C64.9584 10.432 65.1357 9.99333 65.1357 9.452V8.458C65.061 8.57 64.8137 8.668 64.3937 8.752L63.4137 8.934C62.4804 9.11133 62.0137 9.51733 62.0137 10.152C62.0137 10.488 62.1304 10.7587 62.3637 10.964C62.6064 11.1693 62.905 11.272 63.2597 11.272ZM70.6224 12.07C70.0624 12.07 69.6004 11.916 69.2364 11.608C68.8817 11.2907 68.7044 10.782 68.7044 10.082V6.246H67.4444V5.252H68.7044V3.026H69.9084V5.252H71.3084V6.246H69.9084V9.956C69.9084 10.3293 69.9924 10.5953 70.1604 10.754C70.3377 10.9127 70.585 10.992 70.9024 10.992C71.0424 10.992 71.2104 10.978 71.4064 10.95V11.986C71.1544 12.042 70.893 12.07 70.6224 12.07ZM75.2015 12.21C74.4081 12.21 73.8015 11.9813 73.3815 11.524C72.9708 11.0667 72.7655 10.4087 72.7655 9.55V5.252H73.9695V9.298C73.9695 9.96067 74.0908 10.4553 74.3335 10.782C74.5761 11.1087 74.9681 11.272 75.5095 11.272C76.0601 11.272 76.4848 11.0713 76.7835 10.67C77.0821 10.2687 77.2315 9.704 77.2315 8.976V5.252H78.4215V12H77.2455V11.594V11.062C77.0868 11.4167 76.8208 11.6967 76.4475 11.902C76.0741 12.1073 75.6588 12.21 75.2015 12.21ZM80.4921 12V5.252H81.6961V5.546V6.372C81.8734 5.97067 82.1441 5.64867 82.5081 5.406C82.8814 5.154 83.3154 5.028 83.8101 5.028C83.9407 5.028 84.0434 5.03267 84.1181 5.042V6.232C83.9874 6.21333 83.8614 6.204 83.7401 6.204C83.0774 6.204 82.5687 6.39067 82.2141 6.764C81.8687 7.13733 81.6961 7.69267 81.6961 8.43V12H80.4921ZM88.0375 12.21C87.0202 12.21 86.2175 11.8973 85.6295 11.272C85.0508 10.6467 84.7615 9.75533 84.7615 8.598C84.7615 7.91667 84.8968 7.30533 85.1675 6.764C85.4475 6.22267 85.8302 5.798 86.3155 5.49C86.8102 5.182 87.3608 5.028 87.9675 5.028C88.9568 5.028 89.7222 5.35 90.2635 5.994C90.8142 6.638 91.0895 7.51067 91.0895 8.612V8.85H85.9655C85.9748 9.59667 86.1755 10.1893 86.5675 10.628C86.9595 11.0573 87.4542 11.272 88.0515 11.272C88.5088 11.272 88.9008 11.1693 89.2275 10.964C89.5542 10.7493 89.7548 10.3993 89.8295 9.914H91.0195C90.9448 10.5673 90.6555 11.1133 90.1515 11.552C89.6475 11.9907 88.9428 12.21 88.0375 12.21ZM89.8015 7.996C89.8015 7.38 89.6382 6.89 89.3115 6.526C88.9942 6.162 88.5462 5.98 87.9675 5.98C87.4168 5.98 86.9642 6.17133 86.6095 6.554C86.2548 6.93667 86.0542 7.41733 86.0075 7.996H89.8015ZM95.4161 12.21C94.8187 12.21 94.2867 12.07 93.8201 11.79C93.3534 11.51 92.9847 11.0993 92.7141 10.558C92.4434 10.0167 92.3081 9.37267 92.3081 8.626C92.3081 7.94467 92.4341 7.33333 92.6861 6.792C92.9474 6.24133 93.3161 5.812 93.7921 5.504C94.2681 5.18667 94.8187 5.028 95.4441 5.028C95.9574 5.028 96.4007 5.14467 96.7741 5.378C97.1567 5.602 97.4367 5.86333 97.6141 6.162V5.616V2.2H98.8181V12H97.6141V11.608V11.062C97.4274 11.3887 97.1334 11.664 96.7321 11.888C96.3401 12.1027 95.9014 12.21 95.4161 12.21ZM95.6261 11.272C96.2327 11.272 96.7274 11.0293 97.1101 10.544C97.5021 10.0587 97.6981 9.41467 97.6981 8.612C97.6981 7.81867 97.5067 7.184 97.1241 6.708C96.7414 6.22267 96.2421 5.98 95.6261 5.98C95.0101 5.98 94.5107 6.22733 94.1281 6.722C93.7454 7.20733 93.5541 7.842 93.5541 8.626C93.5541 9.41933 93.7454 10.0587 94.1281 10.544C94.5107 11.0293 95.0101 11.272 95.6261 11.272Z" fill="#00165A"/>
</svg>
