<svg width="32" height="32" viewBox="0 0 32 32" fill="none" xmlns="http://www.w3.org/2000/svg">
<path d="M29 16.5207C29 16.0408 28.7477 15.6033 28.3291 15.3518L21.6035 11.3197C22.8085 9.14312 23.2806 6.16415 23.0283 2.32774C23.017 2.18829 22.9269 2.06934 22.7901 2.02012C22.6563 1.975 22.5054 2.00645 22.404 2.10762C20.7085 3.84396 19.0229 4.60277 17.5332 5.27135C15.5347 6.17097 13.7884 6.95439 12.623 9.62192L12.1537 9.12425C12.0847 9.05042 11.9874 9.0053 11.8789 9.01214C11.7746 9.01624 11.6773 9.06136 11.6125 9.13792C11.1432 9.68071 10.7725 10.4299 10.5189 11.2448L3.67087 15.3517C3.25227 15.6033 3 16.0408 3 16.5207C3 17.0006 3.25228 17.4381 3.67087 17.6896L6.02733 19.1033L3.67087 20.5143C3.25227 20.7659 3 21.2034 3 21.6832C3 22.1631 3.25228 22.6006 3.67087 22.8522L15.2558 29.7963C15.4841 29.9303 15.7435 30 16 30C16.2564 30 16.5158 29.9303 16.7427 29.7936L28.3276 22.8494C28.7462 22.5979 28.9985 22.1604 28.9985 21.6805C28.9985 21.2006 28.7462 20.7631 28.3276 20.5116L25.9712 19.1006L28.3276 17.6869C28.7462 17.4353 29 17.0006 29 16.5207ZM27.95 21.1065C28.1586 21.2323 28.2784 21.4428 28.2784 21.6807C28.2784 21.9186 28.16 22.1292 27.95 22.2549L16.3651 29.1991C16.141 29.3358 15.8605 29.3317 15.6364 29.1991L4.05006 22.2549C3.84147 22.1292 3.72167 21.9227 3.72167 21.6807C3.72167 21.4428 3.84006 21.2323 4.05006 21.1065L6.71237 19.511L15.2561 24.6312C15.4873 24.7679 15.7438 24.8376 15.9989 24.8376C16.2554 24.8376 16.5147 24.7679 16.7416 24.6312L25.2853 19.511L27.95 21.1065ZM27.95 17.0923L16.3651 24.0392C16.141 24.1759 15.8605 24.1718 15.6364 24.0392L4.05006 17.0923C3.84147 16.9665 3.72167 16.7601 3.72167 16.5181C3.72167 16.2802 3.84006 16.0697 4.05006 15.9439L10.285 12.2058C10.0934 13.249 10.1004 14.3168 10.3428 15.1699C9.58457 15.7441 8.85594 16.3635 8.16392 17.0881C8.03003 17.2276 8.03708 17.4518 8.18225 17.5817C8.25131 17.6446 8.34151 17.676 8.42748 17.676C8.52472 17.676 8.62197 17.6378 8.69103 17.5639C10.0229 16.1707 11.5196 15.1631 13.1065 14.0953C15.3939 12.5559 17.7601 10.959 19.742 8.08502C19.8533 7.92369 19.8068 7.70768 19.6405 7.59831C19.4742 7.4903 19.2515 7.53541 19.1388 7.69674C17.2333 10.4585 14.9246 12.0158 12.6909 13.517C12.1032 13.9121 11.5254 14.3045 10.963 14.7064C10.667 13.2503 11.0786 11.1395 11.9115 9.90752L12.4781 10.5063C12.5641 10.5979 12.6909 10.639 12.8135 10.6116C12.9361 10.587 13.0376 10.5036 13.0799 10.3874C14.1369 7.56275 15.7647 6.82714 17.828 5.90418C19.2092 5.28484 20.7539 4.59166 22.338 3.14652C22.479 6.62197 21.973 9.29891 20.8088 11.2348C20.8046 11.2416 20.7976 11.2416 20.7947 11.2485C20.7905 11.2553 20.7905 11.2594 20.7877 11.2662C20.1126 12.3764 19.2176 13.2432 18.0958 13.8667L16.1692 14.1784C16.0424 14.1989 15.9352 14.2837 15.8916 14.4026C15.8479 14.5175 15.8704 14.6515 15.9493 14.7485L16.7287 15.6686C15.8775 16.4808 13.3082 16.921 11.7169 15.9489C11.5477 15.8437 11.3279 15.8929 11.2194 16.0569C11.1151 16.221 11.1616 16.4343 11.3307 16.5396C12.0734 16.9948 13.0191 17.1945 13.9507 17.1945C15.4658 17.1945 16.9527 16.6653 17.4967 15.8573C17.5827 15.7274 17.5728 15.5634 17.4713 15.4444L16.902 14.7717L18.2803 14.5475C18.3198 14.5407 18.3592 14.527 18.3987 14.5051C19.5601 13.8721 20.4987 13.0067 21.2231 11.9157L27.9347 15.9407C28.1433 16.0665 28.2631 16.273 28.2631 16.5149C28.2786 16.7597 28.1588 16.9689 27.9502 17.0919L27.95 17.0923Z" fill="#00165A"/>
</svg>
